<svg xmlns="http://www.w3.org/2000/svg" viewBox="0 0 32 32"><defs><style>.cls-1{fill:#0033ad;}.cls-2{fill:#fff;}</style></defs><title>ada</title><g id="ada"><path class="cls-1" d="M16,0A16,16,0,1,0,32,16,16,16,0,0,0,16,0Z"/><path class="cls-2" d="M16,25.6a9.6,9.6,0,1,1,9.6-9.6A9.6,9.6,0,0,1,16,25.6Zm0-17.6A8,8,0,1,0,24,16,8,8,0,0,0,16,8Z"/><path class="cls-2" d="M17,16.89l-1.06,1.21L14.7,16.89,12.44,14.7l-1.21,1.06,3.65,3.65h0l1.21-1.06Z"/><path class="cls-2" d="M18.11,15.11,17,14.05l-1.06,1.06L14.89,14,12.63,11.74l-1.06,1.21,3.32,3.32h0l1.06-1.21Z"/><rect class="cls-2" x="15.5" y="10.84" width="1.01" height="3.73" transform="translate(-3.61 14.28) rotate(-45)"/><path class="cls-2" d="M20.63,16.11l1.06-1.21-3.32-3.32h0L17.2,12.63,18.31,14l2.21,2.21Z"/><path class="cls-2" d="M19.37,17.37l1.21-1.06L17,12.63l-1.06,1.21,3.42,3.42h0Z"/><polygon class="cls-2" points="16.5 17.5 15.5 17.5 15.5 19.5 16.5 19.5 16.5 17.5"/></g></svg>