<svg xmlns="http://www.w3.org/2000/svg" viewBox="0 0 32 32"><defs><style>.cls-1{fill:#e84142;}.cls-2{fill:#fff;}</style></defs><title>avax</title><g id="avax"><path class="cls-1" d="M16,0A16,16,0,1,0,32,16,16,16,0,0,0,16,0Z"/><path class="cls-2" d="M16,7.49,11.2,16.81,9.45,14a.2.2,0,0,0-.31,0L2.24,26.49a.2.2,0,0,0,.16.31h18a.2.2,0,0,0,.15-.32l-3-4.94L18.42,16.8,16,12.23Z"/><path class="cls-1" d="M21.57,21.23l-3.2-5.25L16,11.23,13.63,15,9.08,22.84,11.63,26.8h8.8Z"/><path class="cls-2" d="M22.56,26.8a.2.2,0,0,0,.16-.31L15.82,14a.2.2,0,0,0-.31,0l-1.74,2.83,4.8,7.91,3,4.94A.2.2,0,0,0,22.56,26.8Z"/></g></svg>