<svg xmlns="http://www.w3.org/2000/svg" viewBox="0 0 32 32"><defs><style>.cls-1{fill:#f3ba2f;}.cls-2{fill:#fff;}</style></defs><title>bnb</title><g id="bnb"><path class="cls-1" d="M16,0,5.64,5.64,0,16l5.64,10.36L16,32,26.36,26.36,32,16,26.36,5.64Z"/><path class="cls-2" d="M16,3,8.5,8.5,3,16l5.5,7.5L16,29l7.5-5.5L29,16,23.5,8.5Z"/><polygon class="cls-1" points="16 10.91 12.36 14.55 16 18.18 19.64 14.55 16 10.91"/><polygon class="cls-1" points="20.36 9.82 18.18 7.64 16 5.45 13.82 7.64 11.64 9.82 9.45 12 16 18.55 22.55 12 20.36 9.82"/><polygon class="cls-1" points="22.55 20 16 13.45 9.45 20 11.64 22.18 13.82 24.36 16 26.55 18.18 24.36 20.36 22.18 22.55 20"/></g></svg>