<svg xmlns="http://www.w3.org/2000/svg" viewBox="0 0 32 32"><defs><style>.cls-1{fill:#f7931a;}.cls-2{fill:#fff;}</style></defs><title>btc</title><g id="btc"><circle class="cls-1" cx="16" cy="16" r="16"/><path class="cls-2" d="M22.3,12.11a4.34,4.34,0,0,0-3.32-1.34H16.43v-2.3h2.33V6.15H16.43V4h-3v2.15H11.1v2.32h2.33v9.36H11.1v2.32h2.33V28h3V25.85h2.4a4.33,4.33,0,0,0,3.47-4.45,4.24,4.24,0,0,0-2.27-3.72,2.83,2.83,0,0,1,1.87-2.61ZM18.78,20.2a2,2,0,0,1-2.15,2.15H13.43V18.06h3.2A2,2,0,0,1,18.78,20.2Zm.26-6.8a2,2,0,0,1-2.16,2.1H13.43V11.19h3.45A2,2,0,0,1,19,13.4Z"/></g></svg>