<svg xmlns="http://www.w3.org/2000/svg" viewBox="0 0 32 32"><defs><style>.cls-1{fill:#ba9f33;}.cls-2{fill:#fff;}</style></defs><title>doge</title><g id="doge"><circle class="cls-1" cx="16" cy="16" r="16"/><path class="cls-2" d="M16.14,9.68C13,9.54,9,11.45,9,16.31c0,3,1.6,4.86,1.6,4.86s-1.88-.63-2.18-3.14a.5.5,0,0,0-.55-.49h-.08a.5.5,0,0,0-.49.55c.38,3.52,3.58,4.5,3.58,4.5s-1,2.15-5.69,1.15a.5.5,0,0,0-.56.41.5.5,0,0,0,.41.56c5.72,1.23,7.21-1.6,7.21-1.6S14,26,20.24,26c4.66,0,8.44-3,8.44-7.69S20.73,9.88,16.14,9.68ZM15.2,12h2.23c2.14,0,3.36,1.11,3.36,3.16s-1.18,3.2-3.36,3.2H15.2Zm.8,1.22v4h.87c1.42,0,2.19-.7,2.19-2s-.73-2-2.19-2Z"/></g></svg>