<svg xmlns="http://www.w3.org/2000/svg" viewBox="0 0 32 32"><defs><style>.cls-1{fill:#2a5ada;}.cls-2{fill:#fff;}</style></defs><title>link</title><g id="link"><path class="cls-1" d="M16,0A16,16,0,1,0,32,16,16,16,0,0,0,16,0Z"/><path class="cls-2" d="M14.73,19.34l-3.39-2a.3.3,0,0,1,0-.5l8.13-4.78a.3.3,0,0,1,.39.13l1.88,3.23a.3.3,0,0,1-.13.39l-4.8,2.8Zm-3-2.26,2.68,1.57,4.4-2.58L16.29,13Z"/><path class="cls-2" d="M17.27,24.18l3.39-2a.3.3,0,0,0,0-.5L12.53,16.89a.3.3,0,0,0-.39.13L10.26,20.2a.3.3,0,0,0,.13.39l4.8,2.8Zm3-2.26-2.68,1.57-4.4-2.58,2.52-4.32Z"/></g></svg>