<svg xmlns="http://www.w3.org/2000/svg" viewBox="0 0 32 32"><defs><style>.cls-1{fill:url(#linear-gradient);}.cls-2{fill:#fff;}</style><linearGradient id="linear-gradient" x1="16" y1="32" x2="16" gradientUnits="userSpaceOnUse"><stop offset="0" stop-color="#14f195"/><stop offset="1" stop-color="#9945ff"/></linearGradient></defs><title>sol</title><g id="sol"><path class="cls-1" d="M16,0A16,16,0,1,0,32,16,16,16,0,0,0,16,0Z"/><path class="cls-2" d="M8.28,12.63l-1.4-1.3-4.6,4.3a.49.49,0,0,0,0,.7l4.6,4.3,1.4-1.3L5,16Z"/><path class="cls-2" d="M14,8.28l1.3-1.4,4.3,4.6a.49.49,0,0,1,0,.7l-4.3,4.6-1.3-1.4L16,13.5Z"/><path class="cls-2" d="M23.72,12.63,27,16l-3.28,3.37,1.4,1.3,4.6-4.3a.49.49,0,0,0,0-.7l-4.6-4.3Z"/></g></svg>